<svg width="57" height="60" viewBox="0 0 57 60" fill="none" xmlns="http://www.w3.org/2000/svg">
<path d="M45.6 34.2857C47.595 34.2857 49.476 34.6571 51.3 35.2857C51.3 34.9429 51.3 34.6286 51.3 34.2857C51.3 28.2286 49.191 22.6571 45.6855 18.2571L49.7325 14.2C48.45 12.7429 47.1675 11.4286 45.714 10.1714L41.667 14.2857C37.2495 10.6857 31.692 8.57143 25.65 8.57143C11.4855 8.57143 0 20.0857 0 34.2857C0 48.4857 11.4855 60 25.65 60C27.3315 60 28.956 59.8286 30.5235 59.5143C29.241 57.1429 28.5 54.3714 28.5 51.4286C28.5 41.9714 36.1665 34.2857 45.6 34.2857ZM28.5 37.1429H22.8V17.1429H28.5V37.1429ZM34.2 5.71429H17.1V0H34.2V5.71429ZM57 48.5714V54.2857H34.2V48.5714H57Z" fill="#383576"/>
</svg>
