<svg width="64" height="68" viewBox="0 0 64 68" fill="none" xmlns="http://www.w3.org/2000/svg">
<g filter="url(#filter0_d_1_130)">
<path d="M38.4615 5.71429H21.2308V0H38.4615V5.71429ZM32.7179 51.4286C32.7179 54.3714 33.4646 57.1429 34.7569 59.5143C33.1774 59.8286 31.5405 60 29.8462 60C15.5733 60 4 48.4857 4 34.2857C4 20.0857 15.5733 8.57143 29.8462 8.57143C35.9344 8.57143 41.5344 10.6857 45.9856 14.2857L50.0636 10.1714C51.5282 11.4286 52.8205 12.7429 54.1128 14.2L50.0349 18.2571C53.5672 22.6571 55.6923 28.2286 55.6923 34.2857C55.6923 34.6286 55.6923 34.9429 55.6923 35.2857C53.8544 34.6571 51.959 34.2857 49.9487 34.2857C40.4431 34.2857 32.7179 41.9714 32.7179 51.4286ZM32.7179 17.1429H26.9744V37.1429H32.7179V17.1429ZM56.6687 42.4L46.359 52.6571L41.7928 48.1143L38.4615 51.4286L46.359 60L60 46.4286L56.6687 42.4Z" fill="#383576"/>
<path d="M55.1923 34.5981C53.5156 34.0849 51.7803 33.7857 49.9487 33.7857C40.1693 33.7857 32.2179 41.6929 32.2179 51.4286C32.2179 54.2084 32.8656 56.8416 34.0024 59.1456C32.6583 59.376 31.2729 59.5 29.8462 59.5C15.8471 59.5 4.5 48.2072 4.5 34.2857C4.5 20.3643 15.8471 9.07143 29.8462 9.07143C35.816 9.07143 41.3058 11.1439 45.6712 14.6745L46.0226 14.9587L46.3408 14.6377L50.0889 10.8561C51.2742 11.9008 52.3524 12.9914 53.4241 14.1799L49.6822 17.9027L49.3636 18.2197L49.645 18.5702C53.1094 22.8856 55.1923 28.3477 55.1923 34.2857V34.2877V34.2897V34.2917V34.2937V34.2957V34.2978V34.2998V34.3018V34.3038V34.3058V34.3078V34.3098V34.3118V34.3138V34.3158V34.3178V34.3198V34.3218V34.3238V34.3258V34.3278V34.3298V34.3317V34.3337V34.3357V34.3377V34.3397V34.3417V34.3437V34.3457V34.3477V34.3497V34.3517V34.3537V34.3556V34.3576V34.3596V34.3616V34.3636V34.3656V34.3676V34.3695V34.3715V34.3735V34.3755V34.3775V34.3795V34.3814V34.3834V34.3854V34.3874V34.3894V34.3913V34.3933V34.3953V34.3973V34.3992V34.4012V34.4032V34.4052V34.4071V34.4091V34.4111V34.4131V34.415V34.417V34.419V34.4209V34.4229V34.4249V34.4269V34.4288V34.4308V34.4328V34.4347V34.4367V34.4387V34.4406V34.4426V34.4446V34.4465V34.4485V34.4504V34.4524V34.4544V34.4563V34.4583V34.4603V34.4622V34.4642V34.4661V34.4681V34.4701V34.472V34.474V34.4759V34.4779V34.4799V34.4818V34.4838V34.4857V34.4877V34.4896V34.4916V34.4935V34.4955V34.4974V34.4994V34.5014V34.5033V34.5053V34.5072V34.5092V34.5111V34.5131V34.515V34.517V34.5189V34.5209V34.5228V34.5248V34.5267V34.5287V34.5306V34.5326V34.5345V34.5364V34.5384V34.5403V34.5423V34.5442V34.5462V34.5481V34.5501V34.552V34.554V34.5559V34.5578V34.5598V34.5617V34.5637V34.5656V34.5676V34.5695V34.5714V34.5734V34.5753V34.5773V34.5792V34.5811V34.5831V34.585V34.587V34.5889V34.5908V34.5928V34.5947V34.5966V34.5981ZM33.2179 17.1429V16.6429H32.7179H26.9744H26.4744V17.1429V37.1429V37.6429H26.9744H32.7179H33.2179V37.1429V17.1429ZM46.0063 53.0116L46.359 53.3625L46.7116 53.0116L56.6327 43.1411L59.3241 46.3958L46.3746 59.2791L39.1553 51.4437L41.7928 48.8196L46.0063 53.0116ZM37.9615 5.21429H21.7308V0.5H37.9615V5.21429Z" stroke="black"/>
</g>
<defs>
<filter id="filter0_d_1_130" x="0" y="0" width="64" height="68" filterUnits="userSpaceOnUse" color-interpolation-filters="sRGB">
<feFlood flood-opacity="0" result="BackgroundImageFix"/>
<feColorMatrix in="SourceAlpha" type="matrix" values="0 0 0 0 0 0 0 0 0 0 0 0 0 0 0 0 0 0 127 0" result="hardAlpha"/>
<feOffset dy="4"/>
<feGaussianBlur stdDeviation="2"/>
<feComposite in2="hardAlpha" operator="out"/>
<feColorMatrix type="matrix" values="0 0 0 0 0 0 0 0 0 0 0 0 0 0 0 0 0 0 0.25 0"/>
<feBlend mode="normal" in2="BackgroundImageFix" result="effect1_dropShadow_1_130"/>
<feBlend mode="normal" in="SourceGraphic" in2="effect1_dropShadow_1_130" result="shape"/>
</filter>
</defs>
</svg>
