<svg width="53" height="60" viewBox="0 0 53 60" fill="none" xmlns="http://www.w3.org/2000/svg">
<path d="M38.6757 44.2857H44.0616V58.5714H38.6757V44.2857ZM47.6427 44.2857V58.5714H53V44.2857H47.6427ZM34.3784 0H17.1892V5.71429H34.3784V0ZM51.5676 35.2857C49.7341 34.6571 47.8432 34.2857 45.8378 34.2857C36.3551 34.2857 28.6486 41.9714 28.6486 51.4286C28.6486 54.3714 29.3935 57.1429 30.6827 59.5143C29.107 59.8286 27.4741 60 25.7838 60C11.5454 60 0 48.4857 0 34.2857C0 20.0857 11.5454 8.57143 25.7838 8.57143C31.8573 8.57143 37.4438 10.6857 41.8843 14.2857L45.9524 10.1714C47.4135 11.4286 48.7027 12.7429 49.9919 14.2L45.9238 18.2571C49.4476 22.6571 51.5676 28.2286 51.5676 34.2857C51.5676 34.6286 51.5676 34.9429 51.5676 35.2857ZM28.6486 17.1429H22.9189V37.1429H28.6486V17.1429Z" fill="#383576"/>
</svg>
