<svg width="52" height="69" viewBox="0 0 52 69" fill="none" xmlns="http://www.w3.org/2000/svg">
<path d="M46.2222 18.4L50.5556 14.375C49.1111 12.9375 47.6667 11.5 46.2222 10.35L42.1778 14.375C37.5556 10.6375 32.0667 8.625 26 8.625C11.5556 8.625 0 20.125 0 34.5C0 48.875 11.5556 60.375 26 60.375C40.4444 60.375 52 48.875 52 34.5C52 28.4625 49.9778 22.7125 46.2222 18.4ZM28.8889 37.375H23.1111V17.25H28.8889V37.375ZM34.6667 0H17.3333V5.75H34.6667V0ZM28.8889 69H23.1111V63.25H28.8889V69ZM40.4444 69H34.6667V63.25H40.4444V69ZM17.3333 69H11.5556V63.25H17.3333V69Z" fill="#383576"/>
</svg>
